<?xml version="1.0" encoding="utf-8"?>
<!-- Generator: Adobe Illustrator 16.0.0, SVG Export Plug-In . SVG Version: 6.00 Build 0)  -->
<!DOCTYPE svg PUBLIC "-//W3C//DTD SVG 1.1//EN" "http://www.w3.org/Graphics/SVG/1.1/DTD/svg11.dtd">
<svg version="1.1" id="Layer_1" xmlns="http://www.w3.org/2000/svg" xmlns:xlink="http://www.w3.org/1999/xlink" x="0px" y="0px"
	 width="348.836px" height="348.834px" viewBox="0 0 348.836 348.834" enable-background="new 0 0 348.836 348.834"
	 xml:space="preserve">
<ellipse fill="#FFFFFF" cx="176.418" cy="182.417" rx="155.5" ry="135.5"/>
<path fill="#8B191C" d="M174.089,348.834C77.885,348.722-0.108,270.437,0,174.095C0.108,77.642,78.396-0.132,175.245,0
	c95.729,0.13,173.706,78.628,173.591,174.751C348.722,270.95,270.425,348.95,174.089,348.834z M292.341,146.953
	c6.901-8.92,6.089-19.209-2.198-28.15c-8.488-9.156-19.34-14.658-30.793-18.881c-44.574-16.438-90.17-19.129-136.566-9.459
	c-17.33,3.611-34.393,8.361-49.485,17.873c-6.331,3.988-12.232,9.299-16.879,15.158c-5.801,7.314-4.645,16.652,1.276,23.457
	c21.139-1.533,36.188,7.324,44.262,27.092c48.849,0,97.279,0,145.943,0C256.104,154.066,271.248,145.373,292.341,146.953z
	 M245.625,208.642c-47.867,0-93.988,0-141.495,0c-1.03-3.828-2.557-7.779-3.105-11.865c-1.466-10.932-2.752-21.842-9.665-31.061
	c-9.966-13.287-29.292-17.816-42.365-9.895c-9.282,5.623-12.403,15.541-8.195,26.042c3.689,9.205,13.08,13.738,23.372,11.271
	c1.441-0.346,2.874-0.73,4.164-1.059c6.534,3.656,8.716,7.002,9.577,14.301c0.979,8.307,1.999,16.613,8.792,23.055
	c-12.811,8.508-17.012,20.701-16.533,35.191c11.36,0,22.108,0,33.146,0c2.979-17.713,15.851-24.271,31.142-27.564
	c21.521-4.635,43.365-4.918,65.101-2.311c10.112,1.213,20.199,3.963,29.853,7.305c8.813,3.051,14.112,10.262,16.418,19.43
	c0.276,1.101,0.713,2.158,1.049,3.158c11.015,0,21.771,0,32.89,0c0.254-14.645-3.951-26.791-16.607-35.234
	c6.747-6.395,7.867-14.688,8.732-23.008c0.69-6.653,3.557-11.625,9.633-14.356c15.729,4.489,26.235-1.192,28.945-15.44
	c2.036-10.708-4.339-20.126-15.977-23.602c-16.479-4.916-35.148,5.041-41.314,22.807c-2.369,6.825-2.812,14.307-4.354,21.442
	C247.984,201.151,246.678,204.952,245.625,208.642z M107.248,203.196c45.529,0,90.23,0,135.348,0
	c1.145-7.844,2.239-15.357,3.381-23.191c-47.471,0-94.68,0-142.123,0C105.002,187.853,106.103,195.37,107.248,203.196z"/>
</svg>
