<?xml version="1.0" encoding="UTF-8" standalone="no"?>
<!-- Created with Inkscape (http://www.inkscape.org/) -->

<svg
   xmlns:dc="http://purl.org/dc/elements/1.1/"
   xmlns:cc="http://creativecommons.org/ns#"
   xmlns:rdf="http://www.w3.org/1999/02/22-rdf-syntax-ns#"
   xmlns:svg="http://www.w3.org/2000/svg"
   xmlns="http://www.w3.org/2000/svg"
   xmlns:sodipodi="http://sodipodi.sourceforge.net/DTD/sodipodi-0.dtd"
   xmlns:inkscape="http://www.inkscape.org/namespaces/inkscape"
   version="1.1"
   width="765"
   height="990"
   id="svg2988"
   inkscape:version="0.48.3.1 r9886"
   sodipodi:docname="cover.svg">
  <sodipodi:namedview
     pagecolor="#ffffff"
     bordercolor="#666666"
     borderopacity="1"
     objecttolerance="10"
     gridtolerance="10"
     guidetolerance="10"
     inkscape:pageopacity="0"
     inkscape:pageshadow="2"
     inkscape:window-width="1146"
     inkscape:window-height="1058"
     id="namedview2993"
     showgrid="false"
     inkscape:zoom="0.62925361"
     inkscape:cx="347.85732"
     inkscape:cy="408.06449"
     inkscape:window-x="1920"
     inkscape:window-y="16"
     inkscape:window-maximized="0"
     inkscape:current-layer="layer1" />
  <defs
     id="defs2990" />
  <metadata
     id="metadata2993">
    <rdf:RDF>
      <cc:Work
         rdf:about="">
        <dc:format>image/svg+xml</dc:format>
        <dc:type
           rdf:resource="http://purl.org/dc/dcmitype/StillImage" />
        <dc:title />
      </cc:Work>
    </rdf:RDF>
  </metadata>
  <g
     transform="translate(0,-62.362183)"
     id="layer1">
    <path
       d="m 393.6184,532.86969 c -93.76709,-0.10917 -169.78448,-76.41157 -169.67921,-170.3137 0.10527,-94.0103 76.41017,-169.81467 170.80594,-169.68601 93.30412,0.1267 169.30591,76.63674 169.19383,170.3254 -0.11111,93.76275 -76.4248,169.78736 -170.32056,169.67431 z M 508.87501,336.10137 c 6.72619,-8.6941 5.93476,-18.72252 -2.14232,-27.43709 -8.27299,-8.92413 -18.85011,-14.28679 -30.013,-18.40284 -43.4449,-16.0217 -87.88594,-18.64455 -133.1067,-9.21944 -16.89103,3.51954 -33.5218,8.14925 -48.23151,17.42036 -6.17064,3.887 -11.92216,9.0635 -16.45145,14.77411 -5.65406,7.12878 -4.52734,16.23029 1.24368,22.86295 20.60353,-1.49417 35.27134,7.13852 43.14082,26.40589 47.61161,0 94.81487,0 142.24617,0 7.99522,-19.47108 22.75561,-27.94392 43.31431,-26.40394 z m -45.53265,60.12672 c -46.65451,0 -91.60723,0 -137.91085,0 -1.00392,-3.73105 -2.49223,-7.582 -3.02635,-11.56452 -1.42886,-10.65514 -2.68229,-21.28885 -9.42018,-30.27437 -9.71356,-12.95051 -28.55001,-17.36481 -41.29187,-9.64441 -9.04688,5.48059 -12.08882,15.14742 -7.98741,25.38249 3.59555,8.97188 12.74867,13.39008 22.77997,10.98555 1.4045,-0.33723 2.8012,-0.71152 4.05852,-1.03218 6.3685,3.56341 8.49522,6.82468 9.33441,13.93883 0.95421,8.09662 1.94837,16.19227 8.5693,22.47112 -12.48649,8.29254 -16.58108,20.17674 -16.11422,34.29979 11.07225,0 21.548,0 32.3064,0 2.90353,-17.26442 15.44948,-23.65634 30.35315,-26.86595 20.97585,-4.51761 42.26655,-4.79344 63.45196,-2.25247 9.85585,1.18228 19.68735,3.86264 29.0968,7.12 8.58976,2.97374 13.75454,10.00211 16.00213,18.93793 0.269,1.07312 0.69493,2.10335 1.02242,3.07803 10.73599,0 21.21953,0 32.05688,0 0.24757,-14.27412 -3.85092,-26.11252 -16.18634,-34.34169 6.5761,-6.23305 7.66773,-14.31603 8.51082,-22.42532 0.67252,-6.48451 3.46689,-11.33059 9.38899,-13.99244 15.33057,4.37532 25.57045,-1.16181 28.2118,-15.04898 1.98443,-10.43681 -4.22909,-19.6163 -15.5723,-23.00427 -16.06157,-4.7915 -34.25767,4.91334 -40.26748,22.22941 -2.30899,6.65216 -2.74077,13.94467 -4.24371,20.89898 -0.82359,3.80318 -2.09652,7.50791 -3.12284,11.10447 z m -134.87184,-5.30808 c 44.37572,0 87.94443,0 131.91957,0 1.11599,-7.64535 2.18228,-14.96809 3.29535,-22.60368 -46.26852,0 -92.2817,0 -138.52294,0 1.11892,7.64924 2.19203,14.97588 3.30802,22.60368 z"
       id="path5"
       style="fill:#8b191c" />
    <flowRoot
       xml:space="preserve"
       id="flowRoot2999"
       style="fill:black;stroke:none;stroke-opacity:1;stroke-width:1px;stroke-linejoin:miter;stroke-linecap:butt;fill-opacity:1;font-family:Sans;font-style:normal;font-weight:normal;font-size:40px;line-height:125%;letter-spacing:0px;word-spacing:0px"><flowRegion
         id="flowRegion3001"><rect
           id="rect3003"
           width="220.24971"
           height="132.59932"
           x="287.6731"
           y="688.84222" /></flowRegion><flowPara
         id="flowPara3005"></flowPara></flowRoot>    <text
       xml:space="preserve"
       style="font-size:40px;font-style:normal;font-variant:normal;font-weight:bold;font-stretch:normal;text-align:center;line-height:125%;letter-spacing:0px;word-spacing:0px;text-anchor:middle;fill:#000000;fill-opacity:1;stroke:none;font-family:Arvo;-inkscape-font-specification:Arvo Bold"
       x="398.52591"
       y="760.19421"
       id="text3007"
       sodipodi:linespacing="125%"><tspan
         sodipodi:role="line"
         id="tspan3009"
         x="398.52591"
         y="760.19421">Couchbase Ruby</tspan><tspan
         sodipodi:role="line"
         x="398.52591"
         y="810.19421"
         id="tspan3013">Manual</tspan></text>
  </g>
</svg>
